<svg width="20" height="20" viewBox="0 0 20 20" fill="none" xmlns="http://www.w3.org/2000/svg">
<path fill-rule="evenodd" clip-rule="evenodd" d="M5.66211 1.85254C4.72797 1.85254 3.9707 2.63167 3.9707 3.59278V16.5C3.9707 17.4611 4.72797 17.8725 5.66211 17.8725H14.5382C15.4723 17.8725 15.9469 17.4611 15.9469 16.5V7.07325C16.2296 3.69514 13.9578 1.85254 11.1554 1.85254H5.66211ZM10.7929 3.23449H5.4559V16.5H14.5382V6.45905H11.6386H10.7929V5.58893V3.23449ZM14.4174 5.33302C14.4174 4.1558 13.5112 3.23449 12.0011 3.23449V5.33302H14.4174Z" fill="#FF6634"/>
<path fill-rule="evenodd" clip-rule="evenodd" d="M11.0728 9.34663L11.6577 9.27028C11.8868 11.0251 12.1537 11.1582 13.9906 10.9924L14.067 11.5773C12.3121 11.8064 12.179 12.6978 12.3449 14.5348L11.76 14.6111C11.5309 12.8563 11.264 12.7232 9.42707 12.8891L9.35072 12.3041C11.1687 11.9929 11.3018 11.1015 11.0728 9.34663Z" fill="#FF6634"/>
</svg>
