<svg width="20" height="20" viewBox="0 0 20 20" fill="none" xmlns="http://www.w3.org/2000/svg">
<path d="M9.68457 5.10742C9.90769 5.02526 10.1529 5.0252 10.376 5.10742L17.7559 7.82715C18.5652 8.12574 18.615 9.1949 17.9434 9.6084V13.2451C17.9433 13.6593 17.6076 13.9951 17.1934 13.9951C16.7794 13.9949 16.4434 13.6592 16.4434 13.2451V10.6006L15.7393 10.9521V14.8984C15.7392 15.1707 15.5915 15.4215 15.3535 15.5537L15.3525 15.5547H15.3516C15.3508 15.5551 15.3496 15.5561 15.3486 15.5566C15.3466 15.5577 15.3437 15.559 15.3408 15.5605C15.3348 15.5638 15.327 15.5681 15.3174 15.5732C15.2975 15.5838 15.2693 15.5987 15.2344 15.6162C15.1645 15.6513 15.0648 15.6993 14.9375 15.7559C14.6826 15.8691 14.3156 16.017 13.8525 16.1641C12.9271 16.4578 11.6098 16.7499 10.0303 16.75C8.45058 16.75 7.13246 16.4578 6.20703 16.1641C5.7441 16.0171 5.37686 15.8691 5.12207 15.7559C4.99495 15.6994 4.89503 15.6512 4.8252 15.6162C4.79042 15.5988 4.762 15.5837 4.74219 15.5732C4.73272 15.5682 4.72464 15.5637 4.71875 15.5605C4.71595 15.5591 4.71288 15.5577 4.71094 15.5566C4.71004 15.5561 4.70869 15.5551 4.70801 15.5547H4.70703C4.46925 15.4224 4.32039 15.1706 4.32031 14.8984V10.4902C4.32034 10.4404 4.32568 10.3918 4.33496 10.3447L2.34961 9.71875C1.44069 9.43179 1.41055 8.15693 2.30469 7.82715L9.68457 5.10742ZM10.3311 12.0488L10.1816 12.084C10.031 12.1071 9.87614 12.095 9.72949 12.0488L5.82031 10.8145V14.4209C6.02643 14.5093 6.30962 14.6228 6.66113 14.7344C7.47139 14.9916 8.63458 15.25 10.0303 15.25C11.4258 15.2499 12.5882 14.9916 13.3984 14.7344C13.7501 14.6227 14.0331 14.5093 14.2393 14.4209V10.8145L10.3311 12.0488ZM4.19531 8.72754L10.0303 10.5703L15.8633 8.72754L10.0303 6.57715L4.19531 8.72754Z" fill="#555555"/>
</svg>
