<svg width="20" height="20" viewBox="0 0 20 20" fill="none" xmlns="http://www.w3.org/2000/svg">
<path fill-rule="evenodd" clip-rule="evenodd" d="M14.6607 15.5463L15.6607 13.2501L15.6607 5.33378L4.33928 5.33774L4.33928 13.1938L13.0884 13.1938C13.4677 13.1938 13.8291 13.3544 14.0831 13.6357L14.6585 15.5463L14.6607 15.5463ZM17 13.2501C16.5 14.2501 16.5 14.7501 16 15.7501C16 15.7501 15.5 17.25 14.6607 17.25C13.8214 17.25 13.5 15.75 13.5 15.75L13.2177 14.5275L4.33928 14.5275C3.59961 14.5275 2.99999 13.9286 2.99999 13.1899L2.99999 5.33774C2.99999 4.599 3.59961 4.00013 4.33928 4.00013L15.6607 4.00013C16.4004 4.00013 17 4.599 17 5.33774C17 5.33774 17 12.25 17 13.2501Z" fill="#555555"/>
<path d="M10.036 11.4299C10.3317 11.4299 10.5715 11.6696 10.5717 11.965C10.5717 12.2604 10.3318 12.5 10.036 12.5C9.74013 12.5 9.50028 12.2605 9.50028 11.965C9.50044 11.6696 9.74023 11.4299 10.036 11.4299ZM8.75949 6.59778C9.46438 5.89396 10.6076 5.89393 11.3125 6.59778L11.3857 6.67094C12.2207 7.50499 11.992 8.91054 10.9358 9.43812C10.7127 9.54955 10.5718 9.77835 10.5717 10.0275L10.5717 10.3598C10.5717 10.6553 10.3318 10.8948 10.036 10.8949C9.74013 10.8949 9.50028 10.6553 9.50028 10.3598L9.50028 10.0275C9.50039 9.37303 9.87049 8.77359 10.4566 8.48089C10.8586 8.27995 10.946 7.74511 10.6282 7.42752L10.555 7.35437C10.2685 7.06842 9.80349 7.06844 9.51702 7.35437L8.80762 8.06289C8.59841 8.27184 8.25929 8.27184 8.05008 8.06289C7.841 7.85393 7.84092 7.51521 8.05008 7.3063L8.75949 6.59778Z" fill="#555555"/>
</svg>
