<svg width="20" height="20" viewBox="0 0 20 20" fill="none" xmlns="http://www.w3.org/2000/svg">
<path fill-rule="evenodd" clip-rule="evenodd" d="M12.8473 4.52704L14.2607 3.03735L16.8449 5.62174L15.4423 7.08534L12.8473 4.52704ZM11.8538 5.57407L6.97533 10.7157C6.82668 10.8724 6.73275 11.073 6.70757 11.2874L6.40904 13.8311L8.85044 13.6091C9.09071 13.5873 9.31499 13.4793 9.48191 13.3051L14.4437 8.12734L11.8538 5.57407ZM15.0193 1.75509C14.5888 1.32452 13.8879 1.33371 13.4688 1.77541L5.61691 10.0508C5.45603 10.2204 5.35436 10.4375 5.32712 10.6696L4.92399 14.1045C4.84386 14.7872 5.41228 15.3707 6.09689 15.3085L9.48812 15.0002C9.74816 14.9765 9.99089 14.8597 10.1716 14.6712L18.1311 6.3652C18.5384 5.94014 18.5313 5.26743 18.115 4.85111L15.0193 1.75509Z" fill="#FF6634"/>
<rect x="4" y="16" width="9" height="1.5" rx="0.75" fill="#FF6634"/>
</svg>
