<svg width="20" height="20" viewBox="0 0 20 20" fill="none" xmlns="http://www.w3.org/2000/svg">
<path fill-rule="evenodd" clip-rule="evenodd" d="M6.5 3C6.98325 3 7.375 3.34822 7.375 3.77778V4.55556H12.625V3.77778C12.625 3.34822 13.0168 3 13.5 3C13.9832 3 14.375 3.34822 14.375 3.77778V4.55556C15.8247 4.55556 17 5.60022 17 6.88889V10V14.6667C17 15.9553 15.8247 17 14.375 17H5.625C4.17525 17 3 15.9553 3 14.6667V10V6.88889C3 5.60022 4.17525 4.55556 5.625 4.55556V3.77778C5.625 3.34822 6.01675 3 6.5 3ZM12.625 6.11111V6.88889C12.625 7.31844 13.0168 7.66667 13.5 7.66667C13.9832 7.66667 14.375 7.31844 14.375 6.88889V6.11111C14.8582 6.11111 15.25 6.45933 15.25 6.88889V9.22222H4.75V6.88889C4.75 6.45933 5.14175 6.11111 5.625 6.11111V6.88889C5.625 7.31844 6.01675 7.66667 6.5 7.66667C6.98325 7.66667 7.375 7.31844 7.375 6.88889V6.11111H12.625ZM15.25 10.7778V14.6667C15.25 15.0962 14.8582 15.4444 14.375 15.4444H5.625C5.14175 15.4444 4.75 15.0962 4.75 14.6667V10.7778H15.25Z" fill="#555555"/>
</svg>
