<svg width="20" height="20" viewBox="0 0 20 20" fill="none" xmlns="http://www.w3.org/2000/svg">
<path fill-rule="evenodd" clip-rule="evenodd" d="M15.527 6.26963C14.7346 4.85328 12.8405 4.59423 11.7112 5.74772L10.5846 6.89841C10.4296 7.05681 10.2192 7.14579 9.99993 7.14579C9.78062 7.14579 9.5703 7.05681 9.41522 6.89841L8.28868 5.74776C7.15936 4.59427 5.26533 4.85336 4.47297 6.26972C3.94312 7.21684 4.08313 8.40664 4.81762 9.19854L9.99993 14.7859L15.1823 9.19863C15.9169 8.40669 16.0569 7.21679 15.527 6.26963ZM10.5418 4.55329C12.4422 2.61223 15.6294 3.04817 16.9629 5.43154C17.8546 7.0254 17.619 9.02771 16.3829 10.3604L10.9004 16.2712C10.4111 16.7987 9.58871 16.7987 9.09949 16.2712L3.61704 10.3603C2.38105 9.02766 2.14544 7.02547 3.03707 5.43167C4.37044 3.04825 7.55768 2.61226 9.45808 4.55333L9.99993 5.10677L10.5418 4.55329Z" fill="#555555"/>
</svg>
