<svg width="20" height="20" viewBox="0 0 20 20" fill="none" xmlns="http://www.w3.org/2000/svg">
<path fill-rule="evenodd" clip-rule="evenodd" d="M12.3333 5.81794C12.3333 7.24966 11.4 8.20414 9.99998 8.20414C8.59997 8.20414 7.66664 7.24966 7.66664 5.81794C7.66664 4.38621 8.59997 3.43173 9.99998 3.43173C11.4 3.43173 12.3333 4.38621 12.3333 5.81794ZM13.6978 5.81794C13.6978 7.92652 12.0422 9.63587 9.99998 9.63587C7.95774 9.63587 6.30219 7.92652 6.30219 5.81794C6.30219 3.70935 7.95774 2 9.99998 2C12.0422 2 13.6978 3.70935 13.6978 5.81794ZM4.38218 17.2717C4.38218 14.636 7.44719 12.4993 9.99998 12.4993C12.5528 12.4993 15.6178 14.636 15.6178 17.2717C15.6 18.2262 17 18.2262 17 17.2717C17 13.5817 13.5739 11.0676 9.99998 11.0676C6.42607 11.0676 3 13.5817 3 17.2717C3 18.2591 4.4 18.2262 4.38218 17.2717Z" fill="#FF6634"/>
</svg>
